<svg height='100px' width='100px'  fill="#000000" xmlns="http://www.w3.org/2000/svg" xmlns:xlink="http://www.w3.org/1999/xlink" version="1.1" x="0px" y="0px" viewBox="0 0 120 120" style="enable-background:new 0 0 120 120;" xml:space="preserve"><style type="text/css">
	.st0{fill-rule:evenodd;clip-rule:evenodd;fill:#000000;}
</style><g><path class="st0" d="M61.8,22.2L23.8,55.9c-1.6,1.6-4.2,1.6-5.8,0c-1.6-1.6-1.6-4.2,0-5.8l37.9-33.7c1.6-1.6,4.2-1.6,5.8,0   C63.4,17.9,63.4,20.6,61.8,22.2z"></path><path class="st0" d="M62.5,16L101,50.3c1.6,1.6,1.6,4.3,0,5.9c-1.6,1.6-4.3,1.6-5.9,0L56.5,21.9c-1.6-1.6-1.6-4.3,0-5.9   C58.2,14.4,60.8,14.4,62.5,16z"></path><path class="st0" d="M34.7,61.2V101c0,2.3-1.9,4.2-4.2,4.2c-2.3,0-4.2-1.9-4.2-4.2V61.2c0-2.3,1.9-4.2,4.2-4.2   C32.7,57.1,34.7,59,34.7,61.2z"></path><path class="st0" d="M93.3,61.2V101c0,2.3-1.9,4.2-4.2,4.2c-2.3,0-4.2-1.9-4.2-4.2V61.2c0-2.3,1.9-4.2,4.2-4.2   C91.4,57.1,93.3,59,93.3,61.2z"></path><path class="st0" d="M74.5,75.9V101c0,2.3-1.9,4.2-4.2,4.2c-2.3,0-4.2-1.9-4.2-4.2V75.9c0-2.3,1.9-4.2,4.2-4.2   C72.6,71.7,74.5,73.6,74.5,75.9z"></path><path class="st0" d="M53.5,75.9V101c0,2.3-1.9,4.2-4.2,4.2c-2.3,0-4.2-1.9-4.2-4.2V75.9c0-2.3,1.9-4.2,4.2-4.2   C51.6,71.7,53.5,73.6,53.5,75.9z"></path><path class="st0" d="M70.2,80.1H49.4c-2.3,0-4.2-1.9-4.2-4.2c0-2.3,1.9-4.2,4.2-4.2h20.9c2.3,0,4.2,1.9,4.2,4.2   C74.5,78.2,72.6,80.1,70.2,80.1z"></path><path class="st0" d="M49.3,105.2H30.5c-2.3,0-4.2-1.9-4.2-4.2c0-2.3,1.9-4.2,4.2-4.2h18.8c2.3,0,4.2,1.9,4.2,4.2   C53.5,103.3,51.6,105.2,49.3,105.2z"></path><path class="st0" d="M89.1,105.2H70.3c-2.3,0-4.2-1.9-4.2-4.2c0-2.3,1.9-4.2,4.2-4.2h18.8c2.3,0,4.2,1.9,4.2,4.2   C93.3,103.3,91.4,105.2,89.1,105.2z"></path></g></svg>