<svg xmlns="http://www.w3.org/2000/svg" xmlns:xlink="http://www.w3.org/1999/xlink" version="1.1" x="0px" y="0px" viewBox="0 0 512 640" style="enable-background:new 0 0 512 512;" xml:space="preserve"><g><path d="M68,463.7c0,11,9.3,20.3,20.4,20.3h335.3c11,0,20.4-9.2,20.4-20.3v-90.3c0-78.1-56.9-143.4-131.9-157.9   c28.2-18.1,46.9-49.8,46.9-85.8C359,73.7,313.3,28,257.3,28h-2.7c-56,0-101.6,45.7-101.6,101.7c0,35.9,18.6,67.6,46.8,85.7   C124.9,230,68,295.3,68,373.4V463.7z M254.7,68h2.7c34,0,61.6,27.5,61.6,61.5S291.3,191,257.3,191h-2.7c-34,0-61.6-27.5-61.6-61.5   S220.7,68,254.7,68z M108,373.4c0-66.7,55.7-121.4,123.7-121.4h48.7c68,0,123.7,54.7,123.7,121.4V444H108V373.4z"/></g><text x="0" y="527" fill="#000000" font-size="5px" font-weight="bold" font-family="'Helvetica Neue', Helvetica, Arial-Unicode, Arial, Sans-serif">Created by Ranjit</text><text x="0" y="532" fill="#000000" font-size="5px" font-weight="bold" font-family="'Helvetica Neue', Helvetica, Arial-Unicode, Arial, Sans-serif">from the Noun Project</text></svg>